<svg width="38" height="38" fill="none" xmlns="http://www.w3.org/2000/svg"><path fill-rule="evenodd" clip-rule="evenodd" d="M19 38c10.493 0 19-8.507 19-19S29.493 0 19 0 0 8.507 0 19s8.507 19 19 19z" fill="#3DDC84"/><path fill-rule="evenodd" clip-rule="evenodd" d="M24.867 22c-.36 0-.686.197-.893.491C22.898 24.02 21.138 25 19.186 25c-3.201 0-5.885-2.637-5.885-6s2.684-6 5.885-6c1.952 0 3.712.98 4.788 2.508.207.295.534.492.893.492h3.476c.662 0 1.141-.634.887-1.245C27.587 10.787 23.709 8 19.186 8 13.174 8 8.3 12.925 8.3 19s4.873 11 10.885 11c4.522 0 8.4-2.787 10.044-6.755.254-.611-.225-1.245-.887-1.245h-3.476z" fill="#fff"/></svg>